<svg xmlns="http://www.w3.org/2000/svg" xmlns:xlink="http://www.w3.org/1999/xlink" width="500" zoomAndPan="magnify" viewBox="0 0 375 374.999991" height="500" preserveAspectRatio="xMidYMid meet" version="1.0"><defs><g/><clipPath id="9732513359"><path d="M 273 176 L 283 176 L 283 208 L 273 208 Z M 273 176 " clip-rule="nonzero"/></clipPath><clipPath id="7a88e0fea5"><path d="M 267.929688 180.867188 L 281.410156 176.257812 L 290.394531 202.511719 L 276.910156 207.125 Z M 267.929688 180.867188 " clip-rule="nonzero"/></clipPath><clipPath id="c584420ced"><path d="M 267.929688 180.867188 L 281.410156 176.257812 L 290.394531 202.511719 L 276.910156 207.125 Z M 267.929688 180.867188 " clip-rule="nonzero"/></clipPath><clipPath id="6cbb7aaaa7"><path d="M 273 178 L 279 178 L 279 208 L 273 208 Z M 273 178 " clip-rule="nonzero"/></clipPath><clipPath id="5365254317"><path d="M 267.929688 180.867188 L 281.410156 176.257812 L 290.394531 202.511719 L 276.910156 207.125 Z M 267.929688 180.867188 " clip-rule="nonzero"/></clipPath><clipPath id="6244eb99a7"><path d="M 267.929688 180.867188 L 281.410156 176.257812 L 290.394531 202.511719 L 276.910156 207.125 Z M 267.929688 180.867188 " clip-rule="nonzero"/></clipPath></defs><rect x="-37.5" width="450" fill="#ffffff" y="-37.499999" height="449.999989" fill-opacity="1"/><rect x="-37.5" width="450" fill="#ffffff" y="-37.499999" height="449.999989" fill-opacity="1"/><g fill="#000000" fill-opacity="1"><g transform="translate(85.174021, 204.453396)"><g><path d="M 15 0.671875 C 12.3125 0.671875 9.703125 0.335938 7.171875 -0.328125 C 4.640625 -0.992188 2.582031 -1.878906 1 -2.984375 L 4.078125 -9.921875 C 5.566406 -8.941406 7.289062 -8.148438 9.25 -7.546875 C 11.21875 -6.941406 13.148438 -6.640625 15.046875 -6.640625 C 18.648438 -6.640625 20.453125 -7.539062 20.453125 -9.34375 C 20.453125 -10.300781 19.9375 -11.007812 18.90625 -11.46875 C 17.882812 -11.925781 16.234375 -12.40625 13.953125 -12.90625 C 11.453125 -13.445312 9.363281 -14.023438 7.6875 -14.640625 C 6.007812 -15.253906 4.566406 -16.242188 3.359375 -17.609375 C 2.160156 -18.972656 1.5625 -20.8125 1.5625 -23.125 C 1.5625 -25.144531 2.113281 -26.96875 3.21875 -28.59375 C 4.332031 -30.226562 5.988281 -31.519531 8.1875 -32.46875 C 10.382812 -33.414062 13.082031 -33.890625 16.28125 -33.890625 C 18.46875 -33.890625 20.617188 -33.644531 22.734375 -33.15625 C 24.859375 -32.664062 26.726562 -31.945312 28.34375 -31 L 25.4375 -24.015625 C 22.28125 -25.722656 19.210938 -26.578125 16.234375 -26.578125 C 14.367188 -26.578125 13.007812 -26.300781 12.15625 -25.75 C 11.300781 -25.195312 10.875 -24.476562 10.875 -23.59375 C 10.875 -22.707031 11.378906 -22.039062 12.390625 -21.59375 C 13.398438 -21.15625 15.03125 -20.695312 17.28125 -20.21875 C 19.8125 -19.6875 21.90625 -19.109375 23.5625 -18.484375 C 25.226562 -17.867188 26.671875 -16.890625 27.890625 -15.546875 C 29.109375 -14.203125 29.71875 -12.375 29.71875 -10.0625 C 29.71875 -8.070312 29.160156 -6.269531 28.046875 -4.65625 C 26.941406 -3.039062 25.28125 -1.75 23.0625 -0.78125 C 20.851562 0.1875 18.164062 0.671875 15 0.671875 Z M 15 0.671875 "/></g></g></g><g fill="#000000" fill-opacity="1"><g transform="translate(111.044963, 204.453396)"><g><path d="M 29.1875 -12.8125 C 29.1875 -12.75 29.140625 -12.003906 29.046875 -10.578125 L 10.34375 -10.578125 C 10.726562 -9.253906 11.460938 -8.234375 12.546875 -7.515625 C 13.640625 -6.804688 15.007812 -6.453125 16.65625 -6.453125 C 17.894531 -6.453125 18.960938 -6.625 19.859375 -6.96875 C 20.765625 -7.320312 21.675781 -7.894531 22.59375 -8.6875 L 27.34375 -3.75 C 24.84375 -0.96875 21.1875 0.421875 16.375 0.421875 C 13.363281 0.421875 10.71875 -0.144531 8.4375 -1.28125 C 6.164062 -2.414062 4.40625 -3.992188 3.15625 -6.015625 C 1.90625 -8.046875 1.28125 -10.34375 1.28125 -12.90625 C 1.28125 -15.4375 1.890625 -17.707031 3.109375 -19.71875 C 4.328125 -21.726562 6.007812 -23.300781 8.15625 -24.4375 C 10.3125 -25.582031 12.734375 -26.15625 15.421875 -26.15625 C 17.984375 -26.15625 20.304688 -25.625 22.390625 -24.5625 C 24.484375 -23.5 26.140625 -21.960938 27.359375 -19.953125 C 28.578125 -17.953125 29.1875 -15.570312 29.1875 -12.8125 Z M 15.46875 -19.75 C 14.082031 -19.75 12.921875 -19.351562 11.984375 -18.5625 C 11.046875 -17.769531 10.453125 -16.691406 10.203125 -15.328125 L 20.75 -15.328125 C 20.488281 -16.691406 19.890625 -17.769531 18.953125 -18.5625 C 18.023438 -19.351562 16.863281 -19.75 15.46875 -19.75 Z M 15.46875 -19.75 "/></g></g></g><g fill="#000000" fill-opacity="1"><g transform="translate(136.678551, 204.453396)"><g><path d="M 2.890625 -35.21875 L 11.921875 -35.21875 L 11.921875 0 L 2.890625 0 Z M 2.890625 -35.21875 "/></g></g></g><g fill="#000000" fill-opacity="1"><g transform="translate(146.694635, 204.453396)"><g><path d="M 2.890625 -35.21875 L 11.921875 -35.21875 L 11.921875 0 L 2.890625 0 Z M 2.890625 -35.21875 "/></g></g></g><g fill="#000000" fill-opacity="1"><g transform="translate(156.71072, 204.453396)"><g><path d="M 33.328125 0 L 33.234375 -17.609375 L 24.6875 -3.28125 L 20.5 -3.28125 L 12.015625 -17.140625 L 12.015625 0 L 3.328125 0 L 3.328125 -33.234375 L 11.0625 -33.234375 L 22.734375 -14.046875 L 34.125 -33.234375 L 41.875 -33.234375 L 41.96875 0 Z M 33.328125 0 "/></g></g></g><g fill="#000000" fill-opacity="1"><g transform="translate(197.154828, 204.453396)"><g><path d="M 30 -25.734375 L 18.890625 1.046875 C 17.597656 4.210938 16.015625 6.4375 14.140625 7.71875 C 12.273438 9 10 9.640625 7.3125 9.640625 C 5.945312 9.640625 4.578125 9.425781 3.203125 9 C 1.828125 8.570312 0.710938 8.007812 -0.140625 7.3125 L 2.984375 1 C 3.492188 1.46875 4.101562 1.835938 4.8125 2.109375 C 5.53125 2.378906 6.253906 2.515625 6.984375 2.515625 C 7.835938 2.515625 8.539062 2.335938 9.09375 1.984375 C 9.644531 1.640625 10.109375 1.085938 10.484375 0.328125 L -0.515625 -25.734375 L 8.734375 -25.734375 L 15.046875 -10.015625 L 21.40625 -25.734375 Z M 30 -25.734375 "/></g></g></g><g fill="#000000" fill-opacity="1"><g transform="translate(221.744094, 204.453396)"><g><path d="M 28.859375 -17.328125 C 30.753906 -16.660156 32.238281 -15.625 33.3125 -14.21875 C 34.394531 -12.8125 34.9375 -11.109375 34.9375 -9.109375 C 34.9375 -6.203125 33.765625 -3.957031 31.421875 -2.375 C 29.078125 -0.789062 25.691406 0 21.265625 0 L 3.328125 0 L 3.328125 -33.234375 L 20.3125 -33.234375 C 24.550781 -33.234375 27.78125 -32.445312 30 -30.875 C 32.21875 -29.3125 33.328125 -27.203125 33.328125 -24.546875 C 33.328125 -22.960938 32.9375 -21.546875 32.15625 -20.296875 C 31.382812 -19.046875 30.285156 -18.054688 28.859375 -17.328125 Z M 12.625 -26.4375 L 12.625 -20.03125 L 19.078125 -20.03125 C 22.242188 -20.03125 23.828125 -21.109375 23.828125 -23.265625 C 23.828125 -25.378906 22.242188 -26.4375 19.078125 -26.4375 Z M 20.5 -6.78125 C 23.789062 -6.78125 25.4375 -7.90625 25.4375 -10.15625 C 25.4375 -12.40625 23.789062 -13.53125 20.5 -13.53125 L 12.625 -13.53125 L 12.625 -6.78125 Z M 20.5 -6.78125 "/></g></g></g><g fill="#000000" fill-opacity="1"><g transform="translate(253.406334, 204.453396)"><g><path d="M 2.890625 -25.734375 L 11.921875 -25.734375 L 11.921875 0 L 2.890625 0 Z M 7.40625 -28.578125 C 5.757812 -28.578125 4.425781 -29.035156 3.40625 -29.953125 C 2.394531 -30.867188 1.890625 -32.007812 1.890625 -33.375 C 1.890625 -34.726562 2.394531 -35.863281 3.40625 -36.78125 C 4.425781 -37.707031 5.757812 -38.171875 7.40625 -38.171875 C 9.050781 -38.171875 10.378906 -37.734375 11.390625 -36.859375 C 12.398438 -35.984375 12.90625 -34.867188 12.90625 -33.515625 C 12.90625 -32.085938 12.398438 -30.90625 11.390625 -29.96875 C 10.378906 -29.039062 9.050781 -28.578125 7.40625 -28.578125 Z M 7.40625 -28.578125 "/></g></g></g><g fill="#000000" fill-opacity="1"><g transform="translate(263.422422, 204.453396)"><g><path d="M 25.296875 -6.734375 L 25.296875 0 L 1.5625 0 L 1.5625 -5.3125 L 13.484375 -19.03125 L 1.90625 -19.03125 L 1.90625 -25.734375 L 24.828125 -25.734375 L 24.828125 -20.453125 L 12.90625 -6.734375 Z M 25.296875 -6.734375 "/></g></g></g><g clip-path="url(#9732513359)"><g clip-path="url(#7a88e0fea5)"><g clip-path="url(#c584420ced)"><path fill="#ffffff" d="M 274.535156 178.609375 L 281.253906 176.308594 L 279.015625 187.160156 L 282.953125 185.8125 L 276.890625 207.046875 L 277.667969 191.921875 L 273.453125 193.597656 Z M 274.535156 178.609375 " fill-opacity="1" fill-rule="nonzero"/></g></g></g><g clip-path="url(#6cbb7aaaa7)"><g clip-path="url(#5365254317)"><g clip-path="url(#6244eb99a7)"><path fill="#000000" d="M 274.535156 178.609375 L 275.695312 178.210938 L 273.453125 193.597656 Z M 276.890625 207.046875 L 278.476562 191.644531 L 277.667969 191.921875 Z M 276.890625 207.046875 " fill-opacity="1" fill-rule="nonzero"/></g></g></g></svg>