<svg xmlns="http://www.w3.org/2000/svg" xmlns:xlink="http://www.w3.org/1999/xlink" width="400" zoomAndPan="magnify" viewBox="0 0 300 72.749999" height="97" preserveAspectRatio="xMidYMid meet" version="1.0"><defs><clipPath id="16638a6d30"><path d="M 0.515625 0 L 299.484375 0 L 299.484375 72.5 L 0.515625 72.5 Z M 0.515625 0 " clip-rule="nonzero"/></clipPath><clipPath id="e39834a3d3"><path d="M 1.027344 0 L 298.972656 0 L 298.972656 72.25 L 1.027344 72.25 Z M 1.027344 0 " clip-rule="nonzero"/></clipPath><clipPath id="230f49cda2"><path d="M 1.027344 0 L 298.972656 0 L 298.972656 72.25 L 1.027344 72.25 Z M 1.027344 0 " clip-rule="nonzero"/></clipPath></defs><g clip-path="url(#16638a6d30)"><path fill="#ffffff" d="M 0.515625 0 L 299.484375 0 L 299.484375 72.5 L 0.515625 72.5 Z M 0.515625 0 " fill-opacity="1" fill-rule="nonzero"/><path fill="#ffffff" d="M 0.515625 0 L 299.484375 0 L 299.484375 72.5 L 0.515625 72.5 Z M 0.515625 0 " fill-opacity="1" fill-rule="nonzero"/></g><g clip-path="url(#e39834a3d3)"><path fill="#ffffff" d="M 1.027344 0 L 298.972656 0 L 298.972656 72.25 L 1.027344 72.25 Z M 1.027344 0 " fill-opacity="1" fill-rule="nonzero"/><path fill="#ffffff" d="M 1.027344 0 L 298.972656 0 L 298.972656 72.25 L 1.027344 72.25 Z M 1.027344 0 " fill-opacity="1" fill-rule="nonzero"/></g><path fill="#040404" d="M 243.460938 0.378906 C 239.039062 3.183594 239.355469 9.347656 244.042969 11.621094 C 245.882812 12.511719 248.980469 12.671875 250.933594 11.976562 C 256.171875 10.117188 257.199219 3.628906 252.746094 0.511719 L 252.015625 0 L 244.054688 0 L 243.460938 0.378906 M 78.867188 3.425781 C 78.820312 3.472656 78.78125 9.058594 78.78125 15.84375 L 78.773438 28.175781 L 78.464844 27.433594 C 75.367188 19.984375 69.144531 16.058594 60.453125 16.058594 C 53.066406 16.0625 47.59375 18.824219 43.515625 24.613281 C 42.816406 25.601562 41.816406 27.933594 41.386719 29.570312 C 41.222656 30.183594 41.15625 30.207031 40.75 29.777344 C 39.710938 28.664062 37.097656 27.140625 35 26.421875 C 33.082031 25.765625 30.5625 25.0625 28.4375 24.585938 C 23.15625 23.410156 21.21875 22.867188 19.800781 22.15625 C 17.210938 20.851562 17.347656 17.898438 20.074219 16.261719 C 21.628906 15.332031 26.132812 15.007812 29.300781 15.601562 C 32.167969 16.140625 35.691406 17.339844 37.472656 18.382812 C 38.390625 18.917969 38.097656 19.351562 40.140625 14.429688 C 40.761719 12.933594 41.496094 11.152344 41.777344 10.480469 C 42.378906 9.035156 42.503906 9.246094 40.449219 8.238281 C 39.300781 7.671875 37.929688 7.160156 35.988281 6.566406 C 30.832031 4.996094 22.605469 4.777344 17.539062 6.078125 C 9.691406 8.089844 5.085938 13.304688 5.085938 20.1875 C 5.085938 24.769531 6.742188 27.800781 10.664062 30.410156 C 12.605469 31.703125 15.585938 32.777344 20.261719 33.871094 C 21.007812 34.046875 21.960938 34.269531 22.367188 34.367188 C 22.777344 34.46875 23.722656 34.6875 24.46875 34.863281 C 26.175781 35.265625 28.207031 35.890625 28.40625 36.082031 C 28.492188 36.164062 28.867188 36.367188 29.238281 36.539062 C 30.699219 37.199219 31.386719 38.171875 31.390625 39.570312 C 31.410156 44.703125 18.734375 44.652344 9.683594 39.484375 C 9.113281 39.160156 8.621094 38.890625 8.59375 38.890625 C 8.53125 38.890625 8.097656 39.839844 6.019531 44.511719 L 4.316406 48.332031 L 4.671875 48.621094 C 5.085938 48.960938 7.652344 50.3125 8.375 50.570312 C 8.640625 50.664062 9.261719 50.890625 9.738281 51.070312 C 21.632812 55.472656 35.957031 53.574219 41.308594 46.886719 C 41.804688 46.261719 42.988281 44.320312 42.988281 44.125 C 42.988281 43.738281 43.265625 43.917969 43.738281 44.621094 C 48.101562 51.058594 56.371094 54.070312 66.152344 52.777344 C 70 52.265625 74.4375 50.1875 76.464844 47.949219 C 77.097656 47.242188 77.480469 47.777344 73.101562 43.238281 C 70.53125 40.582031 70.394531 40.46875 70.101562 40.824219 C 70.007812 40.933594 69.542969 41.292969 69.0625 41.609375 C 63.433594 45.40625 54.605469 43.464844 53.460938 38.175781 L 53.375 37.777344 L 78.78125 37.777344 L 78.816406 45.113281 L 78.847656 52.453125 L 85.066406 52.484375 L 91.292969 52.519531 L 91.292969 3.34375 L 85.121094 3.34375 C 81.726562 3.34375 78.914062 3.382812 78.867188 3.425781 M 92.902344 27.925781 L 92.902344 52.515625 L 105.285156 52.515625 L 105.285156 3.34375 L 92.902344 3.34375 L 92.902344 27.925781 M 198.277344 6.148438 C 198.074219 6.207031 198.058594 6.589844 198.027344 11.371094 L 197.996094 16.53125 L 193.460938 16.566406 L 188.929688 16.597656 L 188.578125 17.496094 C 188.386719 17.988281 188.125 18.628906 188.003906 18.910156 C 187.878906 19.199219 187.777344 19.46875 187.777344 19.511719 C 187.777344 19.558594 187.695312 19.769531 187.597656 19.980469 C 187.496094 20.199219 187.214844 20.878906 186.96875 21.488281 C 186.726562 22.105469 186.476562 22.714844 186.414062 22.851562 C 186.351562 22.988281 186.152344 23.488281 185.96875 23.964844 C 185.792969 24.441406 185.566406 25 185.476562 25.207031 C 185.386719 25.410156 185.203125 25.855469 185.074219 26.195312 C 184.941406 26.539062 184.238281 28.292969 183.507812 30.097656 C 182.226562 33.257812 181.386719 35.359375 180.574219 37.464844 C 180.363281 38.011719 180.164062 38.503906 180.128906 38.5625 C 180.066406 38.675781 179.761719 38.046875 179.300781 36.847656 C 178.722656 35.332031 177.214844 31.542969 175.875 28.238281 C 175.117188 26.367188 174.277344 24.277344 174.003906 23.59375 C 173.734375 22.914062 173.441406 22.1875 173.351562 21.984375 C 173.265625 21.78125 173.042969 21.222656 172.859375 20.746094 C 172.675781 20.269531 172.449219 19.714844 172.359375 19.507812 C 172.269531 19.304688 172.046875 18.746094 171.859375 18.269531 C 171.671875 17.789062 171.4375 17.222656 171.335938 17 L 171.152344 16.597656 L 166.121094 16.566406 L 161.085938 16.53125 L 161.050781 11.363281 L 161.019531 6.195312 L 150.179688 6.195312 L 149.917969 6.71875 C 149.769531 7.007812 149.585938 7.386719 149.511719 7.554688 C 149.433594 7.726562 149.304688 7.976562 149.222656 8.113281 C 149.140625 8.25 148.492188 9.339844 147.785156 10.53125 C 147.082031 11.722656 146.375 12.890625 146.21875 13.128906 C 146.066406 13.367188 145.707031 13.980469 145.417969 14.488281 C 145.128906 15.003906 144.769531 15.613281 144.617188 15.851562 C 144.460938 16.09375 143.847656 17.125 143.25 18.144531 C 142.652344 19.167969 141.957031 20.335938 141.703125 20.746094 C 141.453125 21.152344 140.753906 22.324219 140.152344 23.34375 C 139.550781 24.371094 138.824219 25.59375 138.539062 26.070312 C 136.691406 29.152344 134.761719 32.433594 134.691406 32.613281 C 134.554688 32.980469 134.425781 32.847656 133.605469 31.488281 C 133.167969 30.757812 132.496094 29.65625 132.117188 29.042969 C 131.738281 28.429688 131.230469 27.597656 130.988281 27.1875 C 130.746094 26.777344 130.253906 25.96875 129.898438 25.390625 C 129.539062 24.808594 128.722656 23.472656 128.078125 22.417969 C 127.433594 21.359375 126.617188 20.023438 126.257812 19.445312 C 125.898438 18.863281 125.410156 18.058594 125.164062 17.648438 C 124.921875 17.242188 124.246094 16.125 123.65625 15.175781 C 121.921875 12.351562 119.816406 8.910156 119.339844 8.113281 C 119.09375 7.703125 118.742188 7.121094 118.558594 6.8125 L 118.214844 6.253906 L 112.804688 6.222656 L 107.390625 6.191406 L 107.390625 52.515625 L 119.40625 52.515625 L 119.40625 40.5625 C 119.40625 33.988281 119.457031 28.609375 119.515625 28.609375 C 119.621094 28.609375 119.878906 29.015625 121.796875 32.140625 C 123.90625 35.589844 124.238281 36.144531 124.238281 36.238281 C 124.238281 36.289062 124.453125 36.675781 124.714844 37.085938 C 124.980469 37.5 126.1875 39.453125 127.394531 41.429688 C 128.605469 43.40625 129.769531 45.300781 129.988281 45.640625 C 130.199219 45.984375 130.597656 46.636719 130.871094 47.09375 L 131.359375 47.929688 L 137.179688 47.929688 L 138.042969 46.476562 C 139.445312 44.101562 142.304688 39.300781 143.210938 37.796875 C 143.675781 37.023438 144.054688 36.339844 144.054688 36.277344 C 144.054688 36.210938 144.1875 35.953125 144.347656 35.699219 C 144.511719 35.445312 145.46875 33.84375 146.472656 32.140625 C 148.628906 28.492188 149.03125 27.851562 149.105469 27.921875 C 149.136719 27.953125 149.195312 33.484375 149.242188 40.21875 L 149.320312 52.453125 L 155.167969 52.484375 L 161.023438 52.519531 L 161.023438 37.839844 C 161.023438 29.765625 161.0625 23.164062 161.113281 23.164062 C 161.167969 23.164062 161.332031 23.457031 161.480469 23.8125 C 161.628906 24.171875 162.007812 25.074219 162.324219 25.824219 C 162.640625 26.574219 163.039062 27.519531 163.207031 27.925781 C 163.378906 28.335938 163.597656 28.839844 163.6875 29.042969 C 163.777344 29.246094 164.046875 29.890625 164.277344 30.46875 C 164.515625 31.046875 164.878906 31.910156 165.085938 32.390625 C 166.039062 34.570312 166.59375 35.914062 166.59375 36.039062 C 166.59375 36.117188 166.699219 36.414062 166.828125 36.699219 C 167.128906 37.367188 168.015625 39.449219 168.480469 40.5625 C 168.679688 41.039062 168.886719 41.539062 168.949219 41.675781 C 169.074219 41.960938 169.449219 42.847656 170.617188 45.640625 C 171.070312 46.730469 171.523438 47.789062 171.617188 47.996094 C 171.714844 48.199219 171.964844 48.785156 172.171875 49.296875 C 172.382812 49.804688 172.605469 50.335938 172.664062 50.472656 C 173.914062 53.304688 173.914062 53.355469 172.433594 54.78125 C 170.488281 56.660156 166.433594 56.542969 163.914062 54.535156 C 163.628906 54.308594 163.347656 54.125 163.289062 54.125 C 163.230469 54.125 162.230469 56.0625 161.0625 58.429688 L 158.941406 62.734375 L 159.3125 63.0625 C 161.734375 65.203125 168.652344 66.523438 172.859375 65.648438 C 179.25 64.320312 182.71875 60.816406 186.105469 52.265625 C 186.335938 51.691406 186.785156 50.597656 187.097656 49.851562 C 187.417969 49.101562 187.917969 47.90625 188.207031 47.1875 C 188.5 46.472656 188.9375 45.414062 189.179688 44.835938 C 189.582031 43.859375 189.863281 43.1875 191.488281 39.261719 C 191.8125 38.476562 192.230469 37.449219 192.417969 36.96875 C 192.933594 35.65625 193.722656 33.707031 194.042969 32.945312 C 194.199219 32.570312 194.699219 31.371094 195.144531 30.28125 C 195.59375 29.191406 196.066406 28.050781 196.195312 27.746094 C 196.328125 27.4375 196.789062 26.351562 197.214844 25.328125 L 197.996094 23.46875 L 198.058594 37.964844 L 198.117188 52.453125 L 211.804688 52.492188 C 220.839844 52.519531 225.824219 52.488281 226.480469 52.402344 C 227.023438 52.328125 228.027344 52.210938 228.710938 52.132812 C 234.75 51.464844 239.542969 48.492188 241.222656 44.382812 C 241.425781 43.890625 241.625 43.519531 241.679688 43.554688 C 241.734375 43.585938 241.777344 45.617188 241.777344 48.066406 L 241.777344 52.515625 L 270.574219 52.453125 L 270.648438 51.648438 C 270.6875 51.203125 270.78125 50.675781 270.859375 50.472656 C 270.976562 50.144531 271.253906 47.53125 271.816406 41.585938 C 271.90625 40.652344 272.011719 39.675781 272.050781 39.417969 C 272.183594 38.625 272.480469 34.882812 272.421875 34.789062 C 272.351562 34.675781 271.5 34.933594 271.5 35.070312 C 271.5 35.128906 271.40625 35.175781 271.285156 35.175781 C 271 35.175781 268.75 36.0625 268.59375 36.238281 C 268.378906 36.476562 265.796875 37.445312 265.683594 37.328125 C 265.625 37.265625 265.609375 36.578125 265.648438 35.796875 C 265.691406 34.921875 265.753906 34.46875 265.816406 34.621094 C 265.875 34.773438 265.914062 34.5625 265.917969 34.023438 C 265.925781 33.558594 266.003906 33.03125 266.097656 32.847656 C 266.191406 32.660156 266.304688 32.152344 266.347656 31.707031 C 266.394531 31.261719 266.535156 30.203125 266.667969 29.351562 C 266.800781 28.503906 267.023438 26.996094 267.164062 26.007812 C 267.734375 21.9375 268.175781 18.949219 268.347656 17.957031 C 268.554688 16.769531 268.582031 15.976562 268.421875 15.976562 C 268.289062 15.976562 267.433594 16.3125 267.136719 16.480469 C 266.996094 16.554688 264.585938 16.597656 260.695312 16.59375 C 257.273438 16.59375 254.414062 16.59375 254.347656 16.59375 C 254.277344 16.597656 251.425781 16.597656 248 16.59375 L 241.777344 16.589844 L 241.777344 26.253906 C 241.777344 31.570312 241.730469 35.917969 241.675781 35.917969 C 241.625 35.917969 241.398438 35.488281 241.171875 34.957031 C 240.417969 33.207031 239.066406 31.5 237.476562 30.296875 C 236.703125 29.714844 234.460938 28.488281 234.164062 28.488281 C 233.589844 28.488281 233.773438 28.136719 234.640625 27.582031 C 237.988281 25.425781 239.796875 22.15625 239.796875 18.257812 C 239.796875 11.589844 234.605469 7.160156 225.796875 6.300781 C 224.375 6.164062 198.722656 6.023438 198.277344 6.148438 M 222.960938 15.742188 C 228.128906 17.03125 227.992188 23.054688 222.765625 24.273438 C 221.832031 24.488281 211.371094 24.605469 211.121094 24.402344 C 210.925781 24.238281 210.828125 15.753906 211.019531 15.5625 C 211.261719 15.324219 221.910156 15.480469 222.960938 15.742188 M 280.984375 16.566406 C 277.316406 16.589844 275.886719 16.636719 275.824219 16.742188 C 275.773438 16.820312 275.699219 17.140625 275.652344 17.453125 C 275.609375 17.765625 275.527344 18.1875 275.464844 18.394531 C 275.402344 18.597656 275.269531 19.210938 275.167969 19.757812 C 275.070312 20.300781 274.835938 21.441406 274.65625 22.292969 C 274.472656 23.148438 274.28125 24.09375 274.222656 24.402344 C 274.109375 25.003906 273.996094 25.546875 273.675781 27.042969 C 273.410156 28.285156 273.210938 28.261719 276 27.320312 C 279.226562 26.230469 279.019531 26.160156 278.433594 28.144531 C 278.222656 28.84375 277.945312 29.804688 277.816406 30.28125 C 277.425781 31.671875 277.097656 32.820312 276.828125 33.75 C 276.695312 34.226562 276.597656 34.664062 276.613281 34.714844 C 276.632812 34.769531 277.453125 33.886719 278.441406 32.75 C 280.402344 30.484375 283.816406 26.574219 284.429688 25.882812 C 284.644531 25.644531 285.109375 25.109375 285.46875 24.6875 L 286.121094 23.929688 L 286.085938 20.230469 L 286.054688 16.53125 L 280.984375 16.566406 M 62.339844 25.023438 C 63.890625 25.3125 65.273438 26.121094 66.273438 27.332031 C 67.085938 28.308594 67.882812 30.003906 67.882812 30.738281 L 67.882812 31.089844 L 60.585938 31.089844 C 56.566406 31.089844 53.253906 31.042969 53.21875 30.980469 C 53.09375 30.78125 53.59375 29.273438 54.066406 28.429688 C 55.640625 25.617188 58.710938 24.355469 62.339844 25.023438 M 266.460938 26.132812 C 266.445312 26.304688 266.375 27.363281 266.304688 28.488281 C 266.152344 30.996094 266.160156 30.960938 265.585938 31.546875 C 264.804688 32.363281 262.042969 35.5625 261.691406 36.074219 C 261.503906 36.34375 260.691406 37.324219 259.875 38.253906 C 259.0625 39.183594 257.496094 40.972656 256.394531 42.234375 C 255.296875 43.496094 254.34375 44.546875 254.277344 44.566406 C 254.207031 44.59375 254.160156 41.019531 254.160156 35.15625 L 254.160156 25.699219 L 266.488281 25.824219 L 266.460938 26.132812 M 224.191406 33.625 C 227.449219 34.132812 228.9375 35.625 228.941406 38.394531 C 228.945312 40.925781 227.433594 42.472656 224.453125 42.988281 C 223.132812 43.21875 211.671875 43.355469 211.132812 43.152344 C 210.867188 43.050781 210.828125 33.625 211.089844 33.523438 C 211.503906 33.359375 223.042969 33.449219 224.191406 33.625 M 271.207031 41.941406 C 271.164062 42.257812 271.128906 42.679688 271.128906 42.875 C 271.128906 43.234375 271.121094 43.238281 270.480469 43.203125 C 269.667969 43.15625 269.664062 43.050781 270.441406 42.109375 C 271.179688 41.214844 271.3125 41.183594 271.207031 41.941406 M 273.800781 44.496094 C 273.613281 45.191406 273.382812 45.988281 273.292969 46.257812 C 273.203125 46.53125 272.980469 47.285156 272.800781 47.933594 C 272.175781 50.199219 272.082031 50.535156 271.570312 52.238281 L 271.484375 52.515625 L 286.800781 52.453125 L 286.800781 43.289062 L 280.472656 43.253906 L 274.148438 43.222656 L 273.800781 44.496094 " fill-opacity="1" fill-rule="evenodd"/><g clip-path="url(#230f49cda2)"><path fill="#fbfbfb" d="M 1.375 36.101562 L 1.375 72.207031 L 298.625 72.207031 L 298.625 0 L 252.277344 0 L 253 0.539062 C 256.390625 3.039062 256.628906 7.753906 253.507812 10.597656 C 251.261719 12.640625 247.226562 13.183594 244.191406 11.859375 C 239.375 9.75 238.832031 3.292969 243.21875 0.386719 L 243.800781 0 L 1.375 0 L 1.375 36.101562 M 91.417969 27.925781 L 91.417969 52.640625 L 78.785156 52.640625 L 78.785156 37.902344 L 53.609375 37.902344 L 53.6875 38.289062 C 54.738281 43.546875 63.800781 45.21875 69.410156 41.195312 C 70.613281 40.332031 70.535156 40.324219 71.539062 41.398438 C 72 41.890625 73.410156 43.375 74.679688 44.695312 C 77.347656 47.464844 77.25 47.28125 76.472656 48.082031 C 73.160156 51.476562 68.269531 53.160156 61.753906 53.152344 C 55.914062 53.144531 51.515625 51.824219 47.617188 48.910156 C 46.3125 47.929688 44.890625 46.46875 43.886719 45.0625 C 43.464844 44.472656 43.15625 44.140625 43.117188 44.238281 C 41.195312 48.960938 35.445312 52.382812 27.757812 53.390625 C 26.828125 53.511719 21.128906 53.550781 20.164062 53.441406 C 13.503906 52.6875 8.132812 51.089844 4.789062 48.871094 L 4.117188 48.425781 L 5.542969 45.238281 C 6.324219 43.484375 7.039062 41.882812 7.128906 41.675781 C 7.355469 41.160156 7.917969 39.921875 8.210938 39.292969 C 8.503906 38.652344 8.550781 38.652344 9.488281 39.21875 C 11.074219 40.179688 13.144531 41.105469 15.121094 41.738281 C 17.160156 42.394531 17.511719 42.488281 18.589844 42.679688 C 26.230469 44.042969 31.226562 42.816406 31.242188 39.574219 C 31.253906 38.175781 29.75 36.414062 28.550781 36.414062 C 28.460938 36.414062 28.339844 36.339844 28.289062 36.25 C 28.070312 35.898438 26.167969 35.363281 20.695312 34.113281 C 19.117188 33.753906 18.660156 33.632812 16.667969 33.0625 C 9.777344 31.078125 6.085938 27.839844 5.191406 23.003906 C 3.957031 16.324219 7.070312 10.492188 13.515625 7.394531 C 14.921875 6.71875 16.390625 6.171875 17.226562 6.011719 C 17.46875 5.964844 18.105469 5.820312 18.652344 5.695312 C 21.050781 5.136719 26.785156 4.945312 30.046875 5.304688 C 34.625 5.816406 39.300781 7.226562 42.078125 8.929688 L 42.46875 9.167969 L 41.972656 10.375 C 41.699219 11.035156 41.375 11.816406 41.246094 12.097656 C 41.113281 12.386719 41.007812 12.652344 41.007812 12.695312 C 41.007812 12.738281 40.894531 13.019531 40.757812 13.3125 C 40.621094 13.613281 40.3125 14.335938 40.078125 14.917969 C 39.839844 15.5 39.449219 16.453125 39.210938 17.035156 C 38.847656 17.925781 38.445312 18.796875 38.347656 18.917969 C 38.332031 18.9375 37.574219 18.597656 36.664062 18.164062 C 27.117188 13.644531 16.863281 14.816406 18.234375 20.269531 C 18.597656 21.695312 20.566406 22.667969 25.214844 23.714844 C 26.03125 23.902344 27.148438 24.15625 27.695312 24.285156 C 28.238281 24.410156 28.9375 24.566406 29.238281 24.632812 C 34.765625 25.855469 38.074219 27.261719 40.449219 29.398438 L 41.121094 30 L 41.203125 29.644531 C 42.449219 24.269531 47.597656 18.707031 52.777344 17.144531 C 62.46875 14.21875 71.167969 16.449219 76.265625 23.164062 C 76.769531 23.828125 78.039062 25.90625 78.039062 26.066406 C 78.039062 26.113281 78.171875 26.4375 78.332031 26.789062 C 78.492188 27.144531 78.65625 27.519531 78.695312 27.621094 C 78.734375 27.722656 78.769531 22.273438 78.773438 15.511719 L 78.785156 3.21875 L 91.417969 3.21875 L 91.417969 27.925781 M 105.410156 27.925781 L 105.410156 52.640625 L 92.652344 52.640625 L 92.652344 3.21875 L 105.410156 3.21875 L 105.410156 27.925781 M 118.746094 6.875 C 119.035156 7.351562 119.472656 8.074219 119.71875 8.484375 C 120.3125 9.480469 122.097656 12.402344 122.628906 13.257812 C 123.160156 14.105469 123.160156 14.109375 124.199219 15.820312 C 124.664062 16.585938 125.265625 17.578125 125.539062 18.019531 C 125.808594 18.464844 126.398438 19.417969 126.835938 20.144531 C 127.28125 20.871094 127.757812 21.648438 127.890625 21.871094 C 128.027344 22.09375 128.695312 23.1875 129.375 24.296875 C 130.054688 25.410156 130.902344 26.792969 131.257812 27.371094 C 131.613281 27.949219 132.042969 28.648438 132.203125 28.921875 C 132.929688 30.140625 134.316406 32.398438 134.398438 32.488281 C 134.496094 32.597656 135.121094 31.597656 137.617188 27.371094 C 138.519531 25.839844 139.382812 24.390625 139.535156 24.152344 C 139.6875 23.914062 140.300781 22.882812 140.898438 21.863281 C 142.242188 19.570312 145.011719 14.910156 145.277344 14.488281 C 145.386719 14.320312 145.535156 14.070312 145.613281 13.933594 C 145.964844 13.304688 146.710938 12.035156 146.964844 11.644531 C 147.652344 10.570312 149.417969 7.511719 149.484375 7.269531 C 149.527344 7.121094 149.703125 6.761719 149.867188 6.46875 L 150.171875 5.945312 L 161.085938 6.007812 L 161.117188 11.238281 L 161.148438 16.476562 L 171.265625 16.476562 L 171.980469 18.238281 C 173.132812 21.09375 174.648438 24.851562 176.074219 28.363281 C 176.804688 30.167969 177.511719 31.921875 177.644531 32.265625 C 177.773438 32.605469 177.953125 33.050781 178.042969 33.257812 C 178.132812 33.460938 178.359375 34.015625 178.542969 34.496094 C 178.726562 34.96875 178.957031 35.539062 179.050781 35.753906 C 179.148438 35.964844 179.226562 36.1875 179.226562 36.246094 C 179.226562 36.304688 179.40625 36.816406 179.625 37.375 L 180.023438 38.402344 L 180.234375 37.960938 C 180.355469 37.714844 180.519531 37.308594 180.601562 37.054688 C 180.679688 36.804688 180.796875 36.546875 180.855469 36.480469 C 180.914062 36.417969 180.964844 36.289062 180.964844 36.195312 C 180.964844 36.023438 181.15625 35.535156 182.980469 31.027344 C 183.558594 29.59375 184.601562 27.03125 185.285156 25.328125 C 185.96875 23.625 187.046875 20.953125 187.683594 19.382812 L 188.832031 16.53125 L 197.933594 16.472656 L 197.933594 11.347656 C 197.933594 7.09375 197.960938 6.199219 198.109375 6.078125 C 198.347656 5.875 224.554688 5.960938 225.984375 6.171875 C 226.53125 6.253906 227.421875 6.375 227.964844 6.449219 C 228.957031 6.582031 229.378906 6.695312 231.128906 7.277344 C 237.621094 9.441406 240.816406 14.292969 239.753906 20.378906 C 239.25 23.242188 237.503906 25.832031 234.933594 27.523438 C 234.40625 27.871094 234.011719 28.191406 234.0625 28.234375 C 234.117188 28.277344 234.46875 28.449219 234.839844 28.613281 C 237.59375 29.832031 239.871094 31.960938 241.085938 34.457031 L 241.523438 35.359375 L 241.523438 25.914062 L 241.527344 16.476562 L 254.226562 16.476562 C 264.742188 16.476562 266.976562 16.445312 267.203125 16.304688 C 267.554688 16.085938 268.640625 15.796875 268.738281 15.894531 C 268.777344 15.933594 268.695312 16.679688 268.558594 17.554688 C 268.417969 18.421875 268.1875 19.941406 268.042969 20.933594 C 267.902344 21.921875 267.695312 23.285156 267.59375 23.964844 C 267.488281 24.644531 267.347656 25.648438 267.28125 26.195312 C 267.214844 26.738281 267.105469 27.519531 267.035156 27.925781 C 266.964844 28.335938 266.824219 29.285156 266.726562 30.035156 C 266.625 30.785156 266.496094 31.675781 266.433594 32.015625 C 266.371094 32.359375 266.257812 33.082031 266.179688 33.625 C 266.105469 34.171875 265.988281 34.921875 265.925781 35.300781 C 265.714844 36.566406 265.667969 37.132812 265.765625 37.195312 C 265.890625 37.269531 268.285156 36.300781 268.496094 36.089844 C 268.582031 36.007812 268.941406 35.839844 269.300781 35.726562 C 269.660156 35.609375 270.007812 35.472656 270.078125 35.421875 C 270.144531 35.371094 270.425781 35.261719 270.699219 35.179688 C 270.972656 35.09375 271.417969 34.917969 271.695312 34.789062 C 272.753906 34.296875 272.769531 34.410156 272.296875 38.457031 C 272.199219 39.273438 272.066406 40.609375 271.996094 41.429688 C 271.925781 42.246094 271.789062 43.53125 271.695312 44.277344 C 271.597656 45.027344 271.484375 46.140625 271.4375 46.757812 C 271.394531 47.367188 271.304688 48.261719 271.238281 48.738281 C 271.171875 49.214844 271.0625 50.132812 270.996094 50.777344 C 270.824219 52.378906 270.660156 53.789062 270.625 53.941406 C 270.609375 54.003906 270.5625 53.757812 270.523438 53.382812 L 270.449219 52.703125 L 241.527344 52.640625 L 241.523438 48.332031 L 241.523438 44.03125 L 241.242188 44.714844 C 239.875 48.039062 236.03125 50.746094 231.128906 51.851562 C 229.394531 52.242188 229.074219 52.300781 228.042969 52.421875 C 226.910156 52.550781 198.695312 52.703125 198.210938 52.582031 L 197.933594 52.511719 L 197.925781 38.238281 C 197.921875 25.289062 197.90625 24.007812 197.730469 24.402344 C 197.628906 24.636719 197.234375 25.582031 196.859375 26.507812 C 196.484375 27.425781 196.074219 28.398438 195.960938 28.671875 C 195.839844 28.945312 195.511719 29.726562 195.230469 30.40625 C 194.953125 31.089844 194.3125 32.648438 193.804688 33.875 C 193.300781 35.101562 192.65625 36.691406 192.382812 37.402344 C 192.101562 38.117188 191.558594 39.457031 191.179688 40.375 C 190.046875 43.09375 189.636719 44.082031 189.078125 45.457031 C 188.410156 47.09375 188.164062 47.679688 188.027344 47.996094 C 187.730469 48.660156 187.347656 49.578125 186.96875 50.535156 C 186.742188 51.113281 186.4375 51.863281 186.289062 52.203125 C 186.144531 52.546875 185.976562 52.933594 185.921875 53.070312 C 182.304688 61.628906 178.78125 64.886719 172.046875 65.898438 C 167.722656 66.546875 161.773438 65.269531 159.117188 63.109375 L 158.757812 62.820312 L 159.355469 61.601562 C 160.324219 59.605469 163.148438 53.945312 163.195312 53.894531 C 163.21875 53.871094 163.476562 54.042969 163.773438 54.28125 C 166.347656 56.367188 170.644531 56.542969 172.449219 54.636719 C 173.386719 53.648438 173.664062 53.117188 173.464844 52.691406 C 173.375 52.492188 173.128906 51.910156 172.914062 51.402344 C 172.699219 50.886719 172.449219 50.304688 172.355469 50.101562 C 172.265625 49.894531 172.046875 49.367188 171.863281 48.921875 C 171 46.820312 169.914062 44.242188 169.761719 43.90625 C 169.664062 43.703125 169.410156 43.117188 169.195312 42.609375 C 168.980469 42.09375 168.734375 41.507812 168.640625 41.308594 C 168.550781 41.101562 168.28125 40.460938 168.042969 39.882812 C 167.425781 38.363281 167.222656 37.890625 167.019531 37.4375 C 166.917969 37.21875 166.691406 36.660156 166.519531 36.199219 C 166.207031 35.355469 164.746094 31.839844 164.421875 31.152344 C 164.328125 30.945312 164.082031 30.359375 163.867188 29.851562 C 163.65625 29.335938 163.4375 28.808594 163.378906 28.671875 C 163.316406 28.535156 163.128906 28.089844 162.960938 27.683594 C 162.046875 25.507812 161.855469 25.039062 161.65625 24.582031 C 161.539062 24.316406 161.375 23.949219 161.292969 23.78125 C 161.175781 23.535156 161.15625 26.628906 161.214844 38.054688 L 161.289062 52.640625 L 149.296875 52.640625 L 149.214844 49.277344 C 149.171875 47.421875 149.132812 43.566406 149.132812 40.695312 C 149.132812 37.832031 149.097656 33.847656 149.050781 31.847656 L 148.96875 28.214844 L 148.6875 28.691406 C 148.535156 28.953125 148.21875 29.472656 147.984375 29.851562 C 147.753906 30.222656 147.070312 31.363281 146.46875 32.390625 C 145.871094 33.410156 145.136719 34.644531 144.84375 35.121094 C 144.546875 35.605469 144.300781 36.042969 144.300781 36.097656 C 144.300781 36.1875 142.503906 39.285156 141.964844 40.128906 C 141.855469 40.300781 141.707031 40.550781 141.628906 40.6875 C 141.425781 41.066406 139.097656 44.976562 138.871094 45.332031 C 138.761719 45.5 138.363281 46.167969 137.988281 46.816406 L 137.300781 47.996094 L 134.3125 48.027344 L 131.320312 48.0625 L 129.742188 45.488281 C 128.871094 44.074219 127.96875 42.609375 127.738281 42.234375 C 125.382812 38.414062 124.511719 36.980469 124.164062 36.335938 C 123.710938 35.5 123.582031 35.289062 121.898438 32.542969 C 120.828125 30.808594 120.066406 29.597656 119.695312 29.019531 C 119.578125 28.847656 119.546875 31.449219 119.539062 40.71875 L 119.53125 52.640625 L 107.269531 52.640625 L 107.269531 29.375 C 107.269531 16.578125 107.308594 6.074219 107.355469 6.027344 C 107.398438 5.980469 109.863281 5.957031 112.832031 5.976562 L 118.222656 6.007812 L 118.746094 6.875 M 211.089844 19.96875 L 211.121094 24.339844 L 216.324219 24.332031 C 221.960938 24.328125 222.78125 24.253906 224.207031 23.617188 C 227.335938 22.222656 227.378906 17.839844 224.28125 16.363281 C 222.839844 15.675781 222.105469 15.605469 216.292969 15.605469 L 211.054688 15.605469 L 211.089844 19.96875 M 286.335938 20 C 286.378906 24.171875 286.464844 23.769531 285.214844 25.183594 C 284.65625 25.816406 283.722656 26.886719 283.144531 27.558594 C 282.5625 28.226562 281.890625 29 281.640625 29.28125 C 281.199219 29.785156 279.273438 31.992188 277.386719 34.171875 C 276.191406 35.554688 276.171875 35.511719 276.898438 33.003906 C 277.214844 31.917969 277.503906 30.914062 277.539062 30.777344 C 277.574219 30.640625 277.851562 29.675781 278.148438 28.628906 C 278.453125 27.582031 278.671875 26.699219 278.640625 26.667969 C 278.605469 26.632812 277.484375 26.96875 276.144531 27.421875 C 272.957031 28.492188 273.1875 28.558594 273.59375 26.671875 C 273.875 25.386719 274.21875 23.71875 274.667969 21.488281 C 274.847656 20.605469 275.101562 19.421875 275.230469 18.863281 C 275.359375 18.308594 275.46875 17.75 275.46875 17.625 C 275.46875 17.503906 275.527344 17.191406 275.597656 16.9375 L 275.722656 16.472656 L 286.304688 16.53125 L 286.335938 20 M 59.644531 24.972656 C 56.523438 25.441406 54.457031 27.128906 53.574219 29.933594 C 53.417969 30.421875 53.324219 30.855469 53.363281 30.894531 C 53.601562 31.132812 67.757812 30.960938 67.757812 30.71875 C 67.757812 29.933594 66.570312 27.6875 65.75 26.925781 C 64.183594 25.480469 61.664062 24.667969 59.644531 24.972656 M 254.289062 35.144531 L 254.292969 44.402344 L 254.753906 43.894531 C 255.332031 43.265625 258.042969 40.160156 259.652344 38.289062 C 260.320312 37.511719 260.949219 36.792969 261.054688 36.6875 C 261.160156 36.582031 261.371094 36.296875 261.53125 36.050781 C 261.6875 35.808594 262.167969 35.214844 262.601562 34.734375 C 263.035156 34.253906 263.695312 33.503906 264.070312 33.066406 C 264.445312 32.628906 264.949219 32.046875 265.191406 31.773438 C 265.425781 31.496094 265.695312 31.183594 265.777344 31.074219 C 265.941406 30.863281 266.292969 27.816406 266.300781 26.601562 L 266.300781 25.882812 L 254.285156 25.882812 L 254.289062 35.144531 M 211.117188 33.71875 C 211.082031 33.804688 211.070312 35.9375 211.089844 38.457031 L 211.121094 43.039062 L 217.441406 43.039062 C 224.449219 43.035156 225.253906 42.957031 226.632812 42.152344 C 229.925781 40.222656 229.441406 35.339844 225.835938 34.148438 C 224.167969 33.59375 211.308594 33.222656 211.117188 33.71875 M 270.46875 42.285156 C 269.765625 43.105469 269.765625 43.125 270.417969 43.078125 L 270.945312 43.039062 L 271.019531 42.359375 C 271.058594 41.984375 271.078125 41.660156 271.066406 41.640625 C 271.054688 41.621094 270.785156 41.910156 270.46875 42.285156 M 286.925781 47.871094 L 286.925781 52.578125 L 279.148438 52.609375 C 272.753906 52.636719 271.378906 52.613281 271.378906 52.476562 C 271.378906 52.386719 271.453125 52.0625 271.546875 51.761719 C 271.640625 51.460938 271.832031 50.824219 271.96875 50.347656 C 272.105469 49.871094 272.328125 49.089844 272.46875 48.613281 C 272.90625 47.101562 273.351562 45.546875 273.621094 44.589844 C 273.765625 44.078125 273.929688 43.535156 273.992188 43.378906 L 274.097656 43.097656 L 280.507812 43.132812 L 286.925781 43.164062 L 286.925781 47.871094 " fill-opacity="1" fill-rule="evenodd"/></g><path fill="#7c7c7c" d="M 105.316406 27.894531 L 105.285156 52.511719 L 99.003906 52.546875 L 92.714844 52.578125 L 99.007812 52.609375 C 103.949219 52.632812 105.308594 52.605469 105.355469 52.484375 C 105.386719 52.398438 105.398438 41.296875 105.378906 27.808594 L 105.347656 3.28125 L 105.316406 27.894531 M 24.386719 5.167969 C 24.742188 5.191406 25.300781 5.191406 25.621094 5.167969 C 25.941406 5.140625 25.648438 5.121094 24.96875 5.121094 C 24.289062 5.121094 24.023438 5.144531 24.386719 5.167969 M 197.988281 11.332031 C 197.988281 14.128906 198.003906 15.289062 198.027344 13.910156 C 198.046875 12.535156 198.046875 10.25 198.027344 8.832031 C 198.003906 7.414062 197.988281 8.539062 197.988281 11.332031 M 161.078125 28.550781 C 161.078125 31.003906 161.09375 32.023438 161.113281 30.816406 C 161.136719 29.613281 161.136719 27.605469 161.113281 26.359375 C 161.09375 25.109375 161.078125 26.097656 161.078125 28.550781 M 197.992188 38.207031 C 197.992188 45.976562 198.007812 49.171875 198.027344 45.308594 C 198.042969 41.449219 198.042969 35.09375 198.027344 31.191406 C 198.007812 27.285156 197.992188 30.441406 197.992188 38.207031 M 149.175781 40.933594 C 149.175781 41.546875 149.199219 41.8125 149.226562 41.523438 C 149.25 41.238281 149.25 40.738281 149.226562 40.410156 C 149.199219 40.085938 149.179688 40.324219 149.175781 40.933594 M 23.699219 43.316406 C 23.886719 43.34375 24.191406 43.34375 24.382812 43.316406 C 24.566406 43.285156 24.410156 43.261719 24.039062 43.261719 C 23.664062 43.261719 23.511719 43.285156 23.699219 43.316406 M 81.972656 52.609375 C 83.691406 52.628906 86.507812 52.628906 88.226562 52.609375 C 89.949219 52.589844 88.539062 52.574219 85.101562 52.574219 C 81.660156 52.574219 80.25 52.589844 81.972656 52.609375 M 110.398438 52.609375 C 112.082031 52.628906 114.84375 52.628906 116.527344 52.609375 C 118.214844 52.589844 116.835938 52.574219 113.460938 52.574219 C 110.089844 52.574219 108.710938 52.589844 110.398438 52.609375 M 152.332031 52.609375 C 153.984375 52.628906 156.664062 52.628906 158.277344 52.609375 C 159.886719 52.589844 158.53125 52.574219 155.261719 52.574219 C 151.992188 52.574219 150.671875 52.589844 152.332031 52.609375 M 205.152344 52.609375 C 208.890625 52.625 214.964844 52.625 218.65625 52.609375 C 222.34375 52.589844 219.289062 52.574219 211.867188 52.574219 C 204.441406 52.574219 201.421875 52.589844 205.152344 52.609375 M 244.65625 52.609375 C 246.339844 52.628906 249.101562 52.628906 250.785156 52.609375 C 252.472656 52.589844 251.09375 52.574219 247.722656 52.574219 C 244.351562 52.574219 242.96875 52.589844 244.65625 52.609375 M 258.351562 52.609375 C 260.621094 52.628906 264.296875 52.628906 266.523438 52.609375 C 268.753906 52.589844 266.894531 52.574219 262.398438 52.574219 C 257.902344 52.574219 256.082031 52.589844 258.351562 52.609375 M 275.320312 52.609375 C 277.453125 52.628906 280.910156 52.628906 283 52.609375 C 285.085938 52.589844 283.34375 52.574219 279.117188 52.574219 C 274.894531 52.574219 273.1875 52.589844 275.320312 52.609375 " fill-opacity="1" fill-rule="evenodd"/><path fill="#747474" d="M 78.785156 3.3125 C 78.785156 3.363281 81.597656 3.390625 85.035156 3.371094 L 91.292969 3.339844 L 91.355469 52.578125 L 91.417969 3.21875 L 85.101562 3.21875 C 81.625 3.21875 78.785156 3.261719 78.785156 3.3125 M 92.808594 27.898438 L 92.839844 52.578125 L 92.902344 3.347656 L 99.128906 3.3125 L 105.347656 3.28125 L 99.066406 3.25 L 92.777344 3.21875 L 92.808594 27.898438 M 255.558594 5.636719 C 255.5625 5.976562 255.585938 6.101562 255.613281 5.914062 C 255.640625 5.722656 255.640625 5.445312 255.613281 5.292969 C 255.582031 5.140625 255.558594 5.292969 255.558594 5.636719 M 112.707031 6.164062 C 116.753906 6.1875 118.132812 6.234375 118.28125 6.347656 C 118.457031 6.484375 118.460938 6.476562 118.308594 6.285156 C 118.152344 6.085938 117.753906 6.070312 112.738281 6.101562 L 107.332031 6.128906 L 112.707031 6.164062 M 152.820312 6.164062 C 154.332031 6.183594 156.8125 6.183594 158.332031 6.164062 C 159.84375 6.144531 158.601562 6.128906 155.574219 6.128906 C 152.542969 6.128906 151.300781 6.144531 152.820312 6.164062 M 222.609375 6.160156 C 222.933594 6.1875 223.460938 6.1875 223.785156 6.160156 C 224.109375 6.136719 223.84375 6.113281 223.199219 6.113281 C 222.550781 6.113281 222.285156 6.136719 222.609375 6.160156 M 247.4375 12.476562 C 247.660156 12.503906 248.050781 12.503906 248.308594 12.476562 C 248.5625 12.449219 248.382812 12.425781 247.910156 12.425781 C 247.429688 12.425781 247.21875 12.449219 247.4375 12.476562 M 25.0625 15.324219 C 25.25 15.351562 25.554688 15.351562 25.742188 15.324219 C 25.929688 15.296875 25.773438 15.273438 25.402344 15.273438 C 25.027344 15.273438 24.875 15.296875 25.0625 15.324219 M 210.992188 19.9375 C 210.992188 22.355469 211.007812 23.347656 211.027344 22.140625 C 211.046875 20.933594 211.046875 18.949219 211.027344 17.742188 C 211.007812 16.53125 210.992188 17.523438 210.992188 19.9375 M 58.5 16.066406 C 58.691406 16.09375 58.96875 16.09375 59.125 16.066406 C 59.277344 16.035156 59.121094 16.011719 58.78125 16.011719 C 58.441406 16.015625 58.316406 16.039062 58.5 16.066406 M 61.90625 16.066406 C 62.0625 16.09375 62.285156 16.09375 62.40625 16.0625 C 62.523438 16.03125 62.398438 16.007812 62.125 16.007812 C 61.855469 16.011719 61.757812 16.035156 61.90625 16.066406 M 63.457031 16.1875 C 63.574219 16.21875 63.769531 16.21875 63.890625 16.1875 C 64.007812 16.15625 63.910156 16.128906 63.671875 16.128906 C 63.433594 16.128906 63.335938 16.15625 63.457031 16.1875 M 193.414062 16.476562 L 188.828125 16.539062 L 193.375 16.566406 C 196.300781 16.585938 197.945312 16.550781 197.996094 16.476562 C 198.035156 16.40625 198.054688 16.363281 198.035156 16.378906 C 198.011719 16.394531 195.933594 16.4375 193.414062 16.476562 M 166.089844 16.5625 C 170.667969 16.59375 171.105469 16.617188 171.265625 16.8125 C 171.421875 17.007812 171.425781 17.003906 171.304688 16.75 L 171.167969 16.476562 L 166.128906 16.5 L 161.085938 16.53125 L 166.089844 16.5625 M 241.734375 16.550781 C 241.691406 16.597656 241.652344 20.894531 241.652344 26.09375 C 241.652344 32.109375 241.609375 35.546875 241.53125 35.546875 C 241.46875 35.546875 241.445312 35.632812 241.484375 35.734375 C 241.734375 36.386719 241.777344 35.050781 241.777344 26.253906 L 241.777344 16.589844 L 248.046875 16.597656 C 251.5 16.601562 254.347656 16.578125 254.378906 16.542969 C 254.414062 16.507812 251.605469 16.480469 248.132812 16.476562 C 244.664062 16.472656 241.785156 16.503906 241.734375 16.550781 M 257.667969 16.5625 C 259.429688 16.582031 262.269531 16.582031 263.988281 16.5625 C 265.703125 16.542969 264.261719 16.527344 260.789062 16.527344 C 257.316406 16.527344 255.910156 16.542969 257.667969 16.5625 M 278.34375 16.5625 C 279.757812 16.582031 282.074219 16.582031 283.488281 16.5625 C 284.898438 16.542969 283.742188 16.527344 280.917969 16.527344 C 278.085938 16.527344 276.929688 16.542969 278.34375 16.5625 M 286.171875 20.25 C 286.171875 22.292969 286.1875 23.148438 286.207031 22.148438 C 286.230469 21.144531 286.230469 19.476562 286.207031 18.433594 C 286.1875 17.390625 286.171875 18.207031 286.171875 20.25 M 239.828125 18.082031 C 239.828125 18.390625 239.851562 18.515625 239.882812 18.363281 C 239.914062 18.207031 239.914062 17.957031 239.882812 17.800781 C 239.851562 17.648438 239.828125 17.773438 239.828125 18.082031 M 268.1875 18.949219 C 268.1875 19.1875 268.210938 19.285156 268.242188 19.167969 C 268.273438 19.046875 268.273438 18.851562 268.242188 18.734375 C 268.210938 18.617188 268.1875 18.714844 268.1875 18.949219 M 45.773438 21.707031 L 45.15625 22.355469 L 45.808594 21.742188 C 46.410156 21.167969 46.511719 21.054688 46.421875 21.054688 C 46.402344 21.054688 46.109375 21.347656 45.773438 21.707031 M 197.894531 23.699219 C 197.859375 23.789062 197.882812 23.941406 197.941406 24.039062 C 198.023438 24.167969 198.054688 24.121094 198.054688 23.875 C 198.058594 23.5 197.996094 23.433594 197.894531 23.699219 M 213.445312 24.492188 C 214.722656 24.511719 216.8125 24.511719 218.089844 24.492188 C 219.367188 24.46875 218.324219 24.453125 215.765625 24.453125 C 213.210938 24.453125 212.167969 24.46875 213.445312 24.492188 M 254.160156 25.792969 C 254.160156 25.84375 256.917969 25.882812 260.285156 25.882812 C 265.652344 25.882812 266.414062 25.90625 266.464844 26.074219 C 266.507812 26.207031 266.515625 26.195312 266.503906 26.042969 C 266.484375 25.8125 254.160156 25.5625 254.160156 25.792969 M 55.183594 26.90625 L 54.570312 27.558594 L 55.21875 26.941406 C 55.578125 26.605469 55.871094 26.3125 55.871094 26.292969 C 55.871094 26.199219 55.753906 26.304688 55.183594 26.90625 M 119.4375 40.59375 L 119.46875 52.578125 L 119.5 40.648438 C 119.527344 31.699219 119.570312 28.742188 119.675781 28.808594 C 119.765625 28.863281 119.785156 28.84375 119.730469 28.753906 C 119.433594 28.277344 119.410156 29.3125 119.4375 40.59375 M 280.597656 30.25 L 280.230469 30.652344 L 280.636719 30.289062 C 281.011719 29.953125 281.097656 29.851562 281 29.851562 C 280.980469 29.851562 280.796875 30.03125 280.597656 30.25 M 53.175781 30.839844 C 53.21875 31.003906 54.148438 31.027344 60.589844 31.027344 L 67.945312 31.03125 L 60.648438 30.996094 C 55.003906 30.96875 53.320312 30.929688 53.234375 30.808594 C 53.152344 30.695312 53.136719 30.703125 53.175781 30.839844 M 239.296875 32.015625 C 239.53125 32.257812 239.746094 32.449219 239.78125 32.449219 C 239.816406 32.449219 239.652344 32.257812 239.421875 32.015625 C 239.195312 31.777344 238.976562 31.582031 238.941406 31.582031 C 238.910156 31.582031 239.070312 31.777344 239.296875 32.015625 M 266.074219 32.886719 C 265.992188 33.0625 265.933594 33.414062 265.9375 33.664062 C 265.949219 34.0625 265.96875 34.027344 266.109375 33.378906 C 266.292969 32.542969 266.285156 32.425781 266.074219 32.886719 M 161.082031 42.730469 C 161.082031 48.148438 161.097656 50.363281 161.113281 47.652344 C 161.132812 44.945312 161.132812 40.511719 161.113281 37.808594 C 161.097656 35.097656 161.082031 37.3125 161.082031 42.730469 M 214.503906 33.535156 C 216.164062 33.550781 218.835938 33.550781 220.449219 33.535156 C 222.066406 33.515625 220.710938 33.5 217.441406 33.5 C 214.171875 33.5 212.851562 33.515625 214.503906 33.535156 M 210.992188 38.332031 C 210.992188 40.988281 211.007812 42.058594 211.027344 40.707031 C 211.046875 39.359375 211.046875 37.183594 211.027344 35.878906 C 211.007812 34.574219 210.992188 35.679688 210.992188 38.332031 M 277.378906 33.964844 L 277.011719 34.371094 L 277.417969 34.003906 C 277.792969 33.664062 277.878906 33.5625 277.78125 33.5625 C 277.761719 33.5625 277.578125 33.746094 277.378906 33.964844 M 149.1875 36.785156 C 149.1875 38.519531 149.207031 39.230469 149.226562 38.363281 C 149.25 37.496094 149.25 36.074219 149.226562 35.207031 C 149.207031 34.339844 149.1875 35.046875 149.1875 36.785156 M 265.691406 34.863281 C 265.6875 35.242188 265.714844 35.3125 265.808594 35.15625 C 265.882812 35.023438 265.886719 34.839844 265.8125 34.660156 C 265.710938 34.40625 265.695312 34.433594 265.691406 34.863281 M 276.421875 34.800781 C 276.3125 35.21875 276.367188 35.226562 276.714844 34.835938 C 276.878906 34.652344 276.921875 34.574219 276.808594 34.660156 C 276.644531 34.78125 276.59375 34.78125 276.554688 34.660156 C 276.523438 34.570312 276.464844 34.636719 276.421875 34.800781 M 272.40625 35.917969 C 272.40625 36.292969 272.429688 36.445312 272.457031 36.257812 C 272.484375 36.070312 272.484375 35.765625 272.457031 35.578125 C 272.429688 35.390625 272.40625 35.542969 272.40625 35.917969 M 265.585938 36.941406 C 265.609375 37.21875 265.683594 37.34375 265.835938 37.359375 C 265.976562 37.371094 265.992188 37.359375 265.875 37.320312 C 265.777344 37.289062 265.664062 37.101562 265.625 36.902344 C 265.558594 36.554688 265.558594 36.554688 265.585938 36.941406 M 260.285156 37.683594 L 259.921875 38.082031 L 260.324219 37.722656 C 260.699219 37.382812 260.785156 37.28125 260.691406 37.28125 C 260.667969 37.28125 260.484375 37.460938 260.285156 37.683594 M 228.929688 38.394531 C 228.929688 38.703125 228.957031 38.828125 228.984375 38.675781 C 229.011719 38.519531 229.011719 38.269531 228.984375 38.113281 C 228.957031 37.964844 228.929688 38.085938 228.929688 38.394531 M 31.375 39.570312 C 31.378906 39.84375 31.402344 39.941406 31.433594 39.789062 C 31.460938 39.632812 31.460938 39.410156 31.429688 39.289062 C 31.398438 39.175781 31.375 39.296875 31.375 39.570312 M 271.910156 40.808594 C 271.910156 41.152344 271.933594 41.277344 271.964844 41.085938 C 271.992188 40.898438 271.992188 40.621094 271.960938 40.464844 C 271.933594 40.316406 271.910156 40.46875 271.910156 40.808594 M 70.375 40.53125 C 70.40625 40.546875 70.847656 40.953125 71.355469 41.429688 L 72.28125 42.296875 L 71.417969 41.398438 C 70.945312 40.90625 70.5 40.5 70.4375 40.5 C 70.371094 40.5 70.34375 40.511719 70.375 40.53125 M 270.867188 41.582031 C 270.714844 41.777344 270.71875 41.78125 270.90625 41.636719 C 271.085938 41.492188 271.117188 41.515625 271.164062 41.824219 C 271.214844 42.160156 271.21875 42.15625 271.234375 41.769531 C 271.253906 41.324219 271.121094 41.257812 270.867188 41.582031 M 270.449219 43.101562 L 269.832031 43.1875 L 270.480469 43.207031 C 270.847656 43.21875 271.128906 43.171875 271.128906 43.101562 C 271.128906 43.03125 271.113281 42.984375 271.097656 42.996094 C 271.082031 43.007812 270.792969 43.054688 270.449219 43.101562 M 214.191406 43.195312 C 215.875 43.214844 218.632812 43.214844 220.320312 43.195312 C 222.007812 43.175781 220.625 43.160156 217.253906 43.160156 C 213.882812 43.160156 212.5 43.175781 214.191406 43.195312 M 276.394531 43.191406 C 282.113281 43.277344 286.832031 43.28125 286.78125 43.195312 C 286.75 43.144531 283.894531 43.113281 280.441406 43.128906 C 276.988281 43.144531 275.167969 43.171875 276.394531 43.191406 M 22.144531 43.316406 C 22.367188 43.34375 22.757812 43.34375 23.015625 43.316406 C 23.269531 43.289062 23.09375 43.265625 22.613281 43.265625 C 22.136719 43.265625 21.929688 43.289062 22.144531 43.316406 M 24.9375 43.316406 C 25.125 43.34375 25.433594 43.34375 25.617188 43.316406 C 25.804688 43.285156 25.652344 43.261719 25.277344 43.261719 C 24.902344 43.261719 24.75 43.285156 24.9375 43.316406 M 62.835938 43.558594 C 62.957031 43.589844 63.148438 43.589844 63.269531 43.558594 C 63.386719 43.527344 63.289062 43.503906 63.050781 43.503906 C 62.816406 43.503906 62.71875 43.527344 62.835938 43.558594 M 241.496094 43.722656 C 241.460938 43.855469 241.480469 43.9375 241.539062 43.898438 C 241.601562 43.859375 241.664062 45.675781 241.683594 48.207031 L 241.71875 52.578125 L 241.746094 48.09375 C 241.773438 44.101562 241.703125 42.910156 241.496094 43.722656 M 74.203125 44.402344 C 74.636719 44.847656 75.027344 45.207031 75.058594 45.207031 C 75.09375 45.207031 74.761719 44.847656 74.328125 44.402344 C 73.886719 43.957031 73.496094 43.597656 73.464844 43.597656 C 73.429688 43.597656 73.761719 43.957031 74.203125 44.402344 M 271.410156 45.640625 C 271.410156 45.914062 271.433594 46.011719 271.464844 45.855469 C 271.496094 45.703125 271.496094 45.480469 271.464844 45.359375 C 271.433594 45.242188 271.40625 45.367188 271.410156 45.640625 M 76.183594 46.484375 C 76.183594 46.503906 76.363281 46.6875 76.585938 46.886719 L 76.984375 47.25 L 76.625 46.847656 C 76.285156 46.472656 76.183594 46.386719 76.183594 46.484375 M 238.988281 47.714844 L 238.371094 48.363281 L 239.023438 47.75 C 239.378906 47.410156 239.671875 47.121094 239.671875 47.101562 C 239.671875 47.007812 239.554688 47.113281 238.988281 47.714844 M 132.816406 48.023438 C 133.613281 48.046875 134.925781 48.046875 135.726562 48.023438 C 136.527344 48.003906 135.867188 47.988281 134.269531 47.988281 C 132.667969 47.988281 132.015625 48.003906 132.816406 48.023438 M 270.785156 50.710938 C 270.703125 50.890625 270.640625 51.246094 270.644531 51.5 C 270.652344 51.75 270.671875 51.902344 270.691406 51.832031 C 270.714844 51.761719 270.800781 51.480469 270.882812 51.199219 C 271.066406 50.585938 271 50.242188 270.785156 50.710938 M 226.945312 52.351562 C 227.0625 52.382812 227.257812 52.382812 227.378906 52.351562 C 227.5 52.320312 227.402344 52.296875 227.160156 52.296875 C 226.921875 52.296875 226.824219 52.320312 226.945312 52.351562 M 65.683594 52.851562 C 65.804688 52.878906 66 52.878906 66.121094 52.851562 C 66.238281 52.820312 66.140625 52.792969 65.902344 52.792969 C 65.664062 52.792969 65.566406 52.820312 65.683594 52.851562 M 60.238281 53.097656 C 60.425781 53.125 60.707031 53.125 60.855469 53.097656 C 61.007812 53.066406 60.855469 53.042969 60.515625 53.042969 C 60.171875 53.046875 60.046875 53.070312 60.238281 53.097656 M 62.589844 53.097656 C 62.777344 53.125 63.082031 53.125 63.269531 53.097656 C 63.457031 53.070312 63.304688 53.046875 62.929688 53.046875 C 62.554688 53.046875 62.402344 53.070312 62.589844 53.097656 M 26.792969 53.34375 C 26.914062 53.375 27.109375 53.375 27.226562 53.34375 C 27.347656 53.3125 27.25 53.285156 27.011719 53.285156 C 26.769531 53.285156 26.671875 53.3125 26.792969 53.34375 M 22.460938 53.472656 C 23.125 53.496094 24.210938 53.496094 24.875 53.472656 C 25.539062 53.453125 24.996094 53.433594 23.667969 53.433594 C 22.335938 53.433594 21.796875 53.453125 22.460938 53.472656 M 167.988281 65.980469 C 168.175781 66.007812 168.484375 66.007812 168.671875 65.980469 C 168.855469 65.953125 168.707031 65.929688 168.332031 65.929688 C 167.953125 65.929688 167.800781 65.953125 167.988281 65.980469 M 169.847656 65.980469 C 170.035156 66.007812 170.339844 66.007812 170.527344 65.980469 C 170.71875 65.953125 170.5625 65.929688 170.1875 65.929688 C 169.816406 65.929688 169.660156 65.953125 169.847656 65.980469 " fill-opacity="1" fill-rule="evenodd"/><path fill="#9c9c9c" d="M 253.855469 1.363281 C 254.1875 1.707031 254.488281 1.980469 254.523438 1.980469 C 254.558594 1.980469 254.3125 1.707031 253.980469 1.363281 C 253.640625 1.019531 253.339844 0.742188 253.304688 0.742188 C 253.269531 0.742188 253.519531 1.019531 253.855469 1.363281 M 92.714844 27.925781 C 92.714844 41.550781 92.730469 47.109375 92.746094 40.277344 C 92.765625 33.441406 92.765625 22.289062 92.746094 15.5 C 92.730469 8.710938 92.714844 14.304688 92.714844 27.925781 M 22.832031 5.164062 C 23.019531 5.195312 23.324219 5.195312 23.511719 5.164062 C 23.699219 5.136719 23.546875 5.117188 23.171875 5.117188 C 22.796875 5.117188 22.644531 5.136719 22.832031 5.164062 M 26.734375 5.167969 C 27.097656 5.191406 27.65625 5.191406 27.972656 5.167969 C 28.296875 5.140625 28 5.121094 27.320312 5.121094 C 26.640625 5.121094 26.378906 5.144531 26.734375 5.167969 M 240.199219 5.882812 C 240.199219 6.15625 240.226562 6.253906 240.253906 6.097656 C 240.285156 5.945312 240.285156 5.722656 240.253906 5.601562 C 240.222656 5.484375 240.199219 5.609375 240.199219 5.882812 M 107.328125 6.101562 C 107.296875 6.1875 107.285156 16.703125 107.300781 29.476562 L 107.335938 52.703125 L 107.363281 29.382812 L 107.390625 6.070312 L 112.757812 6.070312 C 116.871094 6.070312 118.160156 6.105469 118.292969 6.226562 C 118.441406 6.355469 118.441406 6.34375 118.304688 6.164062 C 118.089844 5.882812 107.429688 5.820312 107.328125 6.101562 M 155.542969 6.039062 L 161.019531 6.074219 L 161.089844 16.414062 L 161.085938 11.207031 L 161.085938 6.007812 L 155.574219 6.007812 L 150.0625 6.003906 L 155.542969 6.039062 M 204.597656 6.039062 C 208.164062 6.058594 213.960938 6.058594 217.480469 6.039062 C 221 6.019531 218.082031 6.003906 210.996094 6.003906 C 203.914062 6.003906 201.035156 6.019531 204.597656 6.039062 M 224.714844 6.15625 C 224.835938 6.1875 225.03125 6.1875 225.148438 6.15625 C 225.269531 6.125 225.171875 6.097656 224.933594 6.097656 C 224.691406 6.097656 224.59375 6.125 224.714844 6.15625 M 228.898438 6.6875 C 229.320312 6.824219 229.644531 6.824219 229.328125 6.6875 C 229.191406 6.628906 228.972656 6.582031 228.835938 6.585938 C 228.636719 6.585938 228.648438 6.609375 228.898438 6.6875 M 149.5625 7 C 149.527344 7.101562 149.476562 7.273438 149.441406 7.378906 C 149.414062 7.480469 149.433594 7.535156 149.488281 7.5 C 149.550781 7.464844 149.625 7.296875 149.65625 7.125 C 149.722656 6.785156 149.65625 6.699219 149.5625 7 M 39.519531 7.742188 C 39.691406 7.839844 39.886719 7.917969 39.957031 7.917969 C 40.023438 7.917969 39.941406 7.839844 39.769531 7.742188 C 39.597656 7.644531 39.402344 7.5625 39.332031 7.5625 C 39.265625 7.5625 39.347656 7.644531 39.519531 7.742188 M 241.960938 10.28125 C 242.296875 10.621094 242.601562 10.898438 242.636719 10.898438 C 242.667969 10.898438 242.421875 10.621094 242.085938 10.28125 C 241.75 9.9375 241.449219 9.664062 241.417969 9.664062 C 241.382812 9.664062 241.625 9.9375 241.960938 10.28125 M 253.96875 10.0625 L 253.605469 10.464844 L 254.007812 10.101562 C 254.382812 9.761719 254.46875 9.664062 254.371094 9.664062 C 254.347656 9.664062 254.167969 9.839844 253.96875 10.0625 M 9.230469 10.1875 L 8.867188 10.589844 L 9.269531 10.226562 C 9.492188 10.023438 9.671875 9.84375 9.671875 9.820312 C 9.671875 9.726562 9.570312 9.808594 9.230469 10.1875 M 249.394531 12.386719 L 248.898438 12.472656 L 249.332031 12.484375 C 249.570312 12.488281 249.875 12.445312 250.011719 12.386719 C 250.304688 12.257812 250.09375 12.257812 249.394531 12.386719 M 246.265625 12.472656 C 246.386719 12.5 246.582031 12.5 246.699219 12.472656 C 246.820312 12.441406 246.722656 12.414062 246.484375 12.414062 C 246.242188 12.414062 246.144531 12.441406 246.265625 12.472656 M 247.691406 12.597656 C 247.847656 12.628906 248.070312 12.625 248.1875 12.59375 C 248.308594 12.5625 248.183594 12.539062 247.910156 12.539062 C 247.632812 12.542969 247.539062 12.566406 247.691406 12.597656 M 27.972656 15.566406 C 28.125 15.597656 28.351562 15.597656 28.46875 15.566406 C 28.585938 15.535156 28.460938 15.511719 28.1875 15.511719 C 27.914062 15.511719 27.816406 15.539062 27.972656 15.566406 M 213.753906 15.574219 C 215.203125 15.59375 217.574219 15.59375 219.015625 15.574219 C 220.464844 15.554688 219.28125 15.539062 216.386719 15.539062 C 213.492188 15.539062 212.304688 15.554688 213.753906 15.574219 M 59.246094 15.941406 C 59.4375 15.972656 59.710938 15.96875 59.863281 15.941406 C 60.019531 15.910156 59.863281 15.886719 59.523438 15.890625 C 59.183594 15.890625 59.058594 15.914062 59.246094 15.941406 M 61.101562 15.941406 C 61.292969 15.972656 61.574219 15.96875 61.726562 15.941406 C 61.878906 15.910156 61.722656 15.886719 61.382812 15.890625 C 61.039062 15.890625 60.914062 15.914062 61.101562 15.941406 M 241.5 25.949219 C 241.484375 31.160156 241.507812 35.421875 241.558594 35.421875 C 241.609375 35.421875 241.652344 31.160156 241.652344 25.949219 C 241.652344 20.738281 241.625 16.476562 241.589844 16.476562 C 241.558594 16.476562 241.515625 20.738281 241.5 25.949219 M 268.558594 16.96875 C 268.558594 17.207031 268.585938 17.304688 268.617188 17.183594 C 268.648438 17.066406 268.648438 16.871094 268.617188 16.75 C 268.585938 16.628906 268.558594 16.726562 268.558594 16.96875 M 286.296875 20.1875 C 286.296875 22.195312 286.3125 23.019531 286.332031 22.015625 C 286.355469 21.011719 286.355469 19.367188 286.332031 18.363281 C 286.3125 17.359375 286.296875 18.179688 286.296875 20.1875 M 239.828125 19.195312 C 239.828125 19.503906 239.851562 19.632812 239.882812 19.476562 C 239.914062 19.324219 239.914062 19.070312 239.882812 18.917969 C 239.851562 18.761719 239.828125 18.890625 239.828125 19.195312 M 4.996094 19.445312 C 4.996094 19.683594 5.019531 19.78125 5.050781 19.664062 C 5.078125 19.542969 5.078125 19.347656 5.050781 19.226562 C 5.019531 19.109375 4.996094 19.207031 4.996094 19.445312 M 275.039062 19.515625 C 274.996094 19.699219 274.980469 19.871094 275.011719 19.898438 C 275.039062 19.925781 275.101562 19.804688 275.148438 19.625 C 275.191406 19.441406 275.207031 19.269531 275.175781 19.238281 C 275.148438 19.210938 275.085938 19.335938 275.039062 19.515625 M 4.996094 21.117188 C 5 21.390625 5.023438 21.488281 5.054688 21.332031 C 5.082031 21.175781 5.078125 20.957031 5.050781 20.839844 C 5.019531 20.71875 4.996094 20.847656 4.996094 21.117188 M 45.773438 21.582031 L 45.15625 22.230469 L 45.808594 21.617188 C 46.410156 21.042969 46.511719 20.933594 46.421875 20.933594 C 46.402344 20.933594 46.109375 21.222656 45.773438 21.582031 M 161.070312 23.585938 C 161.03125 23.683594 161.023438 23.867188 161.050781 23.988281 C 161.078125 24.128906 161.121094 24.0625 161.164062 23.8125 C 161.230469 23.386719 161.1875 23.285156 161.070312 23.585938 M 285.675781 24.554688 L 285.3125 24.957031 L 285.714844 24.59375 C 286.089844 24.253906 286.171875 24.152344 286.078125 24.152344 C 286.054688 24.152344 285.875 24.335938 285.675781 24.554688 M 220.878906 24.367188 C 221.0625 24.394531 221.371094 24.394531 221.558594 24.367188 C 221.746094 24.335938 221.589844 24.316406 221.214844 24.316406 C 220.84375 24.316406 220.691406 24.335938 220.878906 24.367188 M 58.410156 25.144531 C 58.253906 25.210938 58.230469 25.25 58.347656 25.25 C 58.449219 25.25 58.644531 25.203125 58.78125 25.144531 C 58.9375 25.074219 58.960938 25.035156 58.839844 25.035156 C 58.738281 25.035156 58.542969 25.085938 58.410156 25.144531 M 42.433594 26.257812 C 42.328125 26.460938 42.269531 26.628906 42.300781 26.628906 C 42.335938 26.628906 42.449219 26.460938 42.558594 26.257812 C 42.660156 26.050781 42.71875 25.882812 42.683594 25.882812 C 42.648438 25.882812 42.539062 26.050781 42.433594 26.257812 M 254.191406 35.144531 C 254.175781 40.273438 254.207031 44.464844 254.261719 44.464844 C 254.320312 44.464844 254.503906 44.3125 254.667969 44.121094 L 254.96875 43.78125 L 254.628906 44.082031 L 254.285156 44.382812 L 254.253906 35.101562 L 254.222656 25.824219 L 254.191406 35.144531 M 55.25 26.9375 C 54.949219 27.246094 54.730469 27.496094 54.765625 27.496094 C 54.800781 27.496094 55.074219 27.246094 55.375 26.9375 C 55.675781 26.632812 55.894531 26.382812 55.859375 26.382812 C 55.828125 26.382812 55.550781 26.632812 55.25 26.9375 M 65.40625 26.546875 C 65.40625 26.566406 65.585938 26.746094 65.808594 26.945312 L 66.214844 27.308594 L 65.847656 26.90625 C 65.507812 26.535156 65.40625 26.449219 65.40625 26.546875 M 283.199219 27.402344 L 282.835938 27.808594 L 283.238281 27.441406 C 283.609375 27.101562 283.695312 27 283.597656 27 C 283.578125 27 283.398438 27.179688 283.199219 27.402344 M 266.207031 28.175781 C 266.210938 28.449219 266.234375 28.546875 266.265625 28.390625 C 266.292969 28.238281 266.292969 28.015625 266.261719 27.894531 C 266.230469 27.78125 266.207031 27.902344 266.207031 28.175781 M 148.984375 28.082031 C 148.964844 28.132812 148.976562 29.292969 149.011719 30.652344 L 149.078125 33.132812 L 149.105469 30.5625 C 149.132812 28.246094 149.109375 27.789062 148.984375 28.082031 M 266.082031 29.476562 C 266.082031 29.714844 266.109375 29.816406 266.140625 29.695312 C 266.167969 29.574219 266.167969 29.378906 266.140625 29.261719 C 266.109375 29.140625 266.082031 29.238281 266.082031 29.476562 M 265.945312 30.597656 C 265.9375 30.773438 265.886719 30.96875 265.835938 31.035156 C 265.785156 31.097656 265.816406 31.089844 265.910156 31.011719 C 266 30.933594 266.050781 30.738281 266.019531 30.578125 C 265.964844 30.285156 265.960938 30.285156 265.945312 30.597656 M 239.175781 31.769531 C 239.40625 32.007812 239.625 32.203125 239.65625 32.203125 C 239.691406 32.203125 239.53125 32.007812 239.296875 31.769531 C 239.070312 31.53125 238.851562 31.335938 238.816406 31.335938 C 238.785156 31.335938 238.945312 31.53125 239.175781 31.769531 M 134.640625 32.332031 C 134.566406 32.464844 134.445312 32.542969 134.371094 32.496094 C 134.285156 32.445312 134.269531 32.46875 134.320312 32.554688 C 134.371094 32.636719 134.464844 32.667969 134.527344 32.628906 C 134.660156 32.546875 134.925781 32.078125 134.835938 32.078125 C 134.800781 32.078125 134.710938 32.191406 134.640625 32.332031 M 222.796875 33.652344 C 223.019531 33.679688 223.378906 33.679688 223.601562 33.652344 C 223.824219 33.625 223.640625 33.601562 223.199219 33.601562 C 222.753906 33.601562 222.574219 33.625 222.796875 33.652344 M 277.378906 34.089844 L 277.011719 34.496094 L 277.417969 34.128906 C 277.792969 33.789062 277.878906 33.6875 277.78125 33.6875 C 277.761719 33.6875 277.578125 33.867188 277.378906 34.089844 M 262.578125 34.769531 L 262.148438 35.238281 L 262.617188 34.808594 C 263.050781 34.414062 263.136719 34.308594 263.042969 34.308594 C 263.023438 34.308594 262.8125 34.519531 262.578125 34.769531 M 227.535156 35.113281 C 227.765625 35.351562 227.980469 35.546875 228.015625 35.546875 C 228.046875 35.546875 227.886719 35.351562 227.660156 35.113281 C 227.425781 34.875 227.207031 34.679688 227.175781 34.679688 C 227.140625 34.679688 227.300781 34.875 227.535156 35.113281 M 272.519531 35.421875 C 272.519531 35.664062 272.546875 35.761719 272.578125 35.640625 C 272.609375 35.519531 272.609375 35.324219 272.578125 35.207031 C 272.546875 35.085938 272.519531 35.183594 272.519531 35.421875 M 265.757812 35.449219 C 265.71875 35.605469 265.691406 35.953125 265.699219 36.226562 C 265.710938 36.636719 265.730469 36.59375 265.808594 35.980469 C 265.910156 35.199219 265.886719 34.96875 265.757812 35.449219 M 260.285156 37.558594 L 259.921875 37.964844 L 260.324219 37.597656 C 260.699219 37.257812 260.785156 37.15625 260.691406 37.15625 C 260.667969 37.15625 260.484375 37.335938 260.285156 37.558594 M 272.277344 38.027344 C 272.277344 38.328125 272.300781 38.453125 272.332031 38.300781 C 272.359375 38.148438 272.359375 37.898438 272.332031 37.746094 C 272.300781 37.589844 272.277344 37.71875 272.277344 38.027344 M 53.558594 37.96875 C 53.519531 38.074219 53.519531 38.191406 53.5625 38.234375 C 53.605469 38.277344 53.640625 38.21875 53.640625 38.105469 C 53.640625 37.917969 54.589844 37.898438 66.246094 37.871094 L 78.847656 37.835938 L 66.238281 37.808594 C 54.972656 37.78125 53.625 37.796875 53.558594 37.96875 M 228.8125 38.457031 C 228.8125 38.867188 228.835938 39.019531 228.863281 38.796875 C 228.890625 38.574219 228.890625 38.238281 228.863281 38.054688 C 228.832031 37.867188 228.8125 38.050781 228.8125 38.457031 M 257.808594 40.40625 L 257.441406 40.808594 L 257.847656 40.445312 C 258.222656 40.109375 258.308594 40.003906 258.210938 40.003906 C 258.191406 40.003906 258.007812 40.1875 257.808594 40.40625 M 161.203125 46.507812 C 161.203125 49.914062 161.21875 51.289062 161.238281 49.5625 C 161.257812 47.839844 161.257812 45.050781 161.238281 43.371094 C 161.21875 41.6875 161.203125 43.101562 161.203125 46.507812 M 71.164062 41.121094 C 71.5 41.460938 71.804688 41.738281 71.839844 41.738281 C 71.875 41.738281 71.625 41.460938 71.289062 41.121094 C 70.957031 40.777344 70.652344 40.5 70.617188 40.5 C 70.585938 40.5 70.832031 40.777344 71.164062 41.121094 M 55.25 41.058594 C 55.480469 41.296875 55.699219 41.492188 55.734375 41.492188 C 55.765625 41.492188 55.605469 41.296875 55.375 41.058594 C 55.140625 40.820312 54.929688 40.625 54.894531 40.625 C 54.859375 40.625 55.019531 40.820312 55.25 41.058594 M 256.199219 42.265625 L 255.835938 42.667969 L 256.238281 42.304688 C 256.609375 41.964844 256.695312 41.863281 256.601562 41.863281 C 256.578125 41.863281 256.394531 42.042969 256.199219 42.265625 M 271.039062 42.296875 C 271.042969 42.570312 271.0625 42.664062 271.09375 42.511719 C 271.121094 42.359375 271.121094 42.136719 271.089844 42.015625 C 271.0625 41.898438 271.039062 42.023438 271.039062 42.296875 M 149.1875 45.082031 C 149.1875 46.820312 149.207031 47.53125 149.226562 46.664062 C 149.25 45.796875 149.25 44.371094 149.226562 43.503906 C 149.207031 42.632812 149.1875 43.347656 149.1875 45.082031 M 271.785156 42.851562 C 271.785156 43.160156 271.808594 43.285156 271.839844 43.132812 C 271.867188 42.976562 271.867188 42.726562 271.839844 42.578125 C 271.808594 42.421875 271.785156 42.550781 271.785156 42.851562 M 66.519531 42.789062 C 66.351562 42.886719 66.269531 42.96875 66.335938 42.96875 C 66.40625 42.96875 66.597656 42.886719 66.769531 42.789062 C 66.9375 42.691406 67.023438 42.617188 66.953125 42.617188 C 66.886719 42.617188 66.691406 42.691406 66.519531 42.789062 M 73.273438 43.351562 C 73.605469 43.691406 73.910156 43.96875 73.945312 43.96875 C 73.976562 43.96875 73.730469 43.691406 73.394531 43.351562 C 73.0625 43.007812 72.757812 42.730469 72.722656 42.730469 C 72.691406 42.730469 72.9375 43.007812 73.273438 43.351562 M 21.902344 43.1875 C 22.058594 43.21875 22.304688 43.21875 22.460938 43.1875 C 22.613281 43.160156 22.488281 43.136719 22.179688 43.136719 C 21.875 43.136719 21.75 43.160156 21.902344 43.1875 M 286.863281 47.722656 L 286.925781 52.328125 L 286.957031 47.816406 C 286.976562 45.332031 286.945312 43.261719 286.894531 43.207031 C 286.84375 43.15625 286.828125 45.1875 286.863281 47.722656 M 60.546875 43.4375 C 60.699219 43.46875 60.949219 43.46875 61.101562 43.4375 C 61.253906 43.40625 61.128906 43.382812 60.824219 43.382812 C 60.519531 43.382812 60.394531 43.40625 60.546875 43.4375 M 63.640625 43.4375 C 63.796875 43.46875 64.046875 43.46875 64.199219 43.4375 C 64.351562 43.40625 64.226562 43.382812 63.921875 43.382812 C 63.613281 43.382812 63.488281 43.40625 63.640625 43.4375 M 241.5 46.785156 C 241.515625 48.335938 241.542969 50.300781 241.5625 51.152344 C 241.582031 52.003906 241.609375 50.734375 241.625 48.332031 C 241.640625 45.933594 241.609375 43.96875 241.558594 43.96875 C 241.507812 43.96875 241.484375 45.234375 241.5 46.785156 M 76.246094 46.445312 C 76.648438 46.855469 77.007812 47.1875 77.039062 47.1875 C 77.074219 47.1875 76.769531 46.855469 76.367188 46.445312 C 75.960938 46.039062 75.601562 45.703125 75.570312 45.703125 C 75.539062 45.703125 75.839844 46.039062 76.246094 46.445312 M 239.171875 47.652344 L 238.742188 48.117188 L 239.207031 47.691406 C 239.460938 47.457031 239.671875 47.246094 239.671875 47.226562 C 239.671875 47.132812 239.566406 47.21875 239.171875 47.652344 M 271.285156 47.683594 C 271.285156 47.992188 271.3125 48.117188 271.339844 47.964844 C 271.371094 47.808594 271.371094 47.558594 271.339844 47.40625 C 271.3125 47.25 271.285156 47.375 271.285156 47.683594 M 271.15625 48.800781 C 271.15625 49.039062 271.183594 49.136719 271.214844 49.015625 C 271.246094 48.898438 271.246094 48.699219 271.214844 48.582031 C 271.183594 48.460938 271.15625 48.558594 271.15625 48.800781 M 270.820312 51.523438 C 270.773438 51.734375 270.765625 51.941406 270.796875 51.972656 C 270.832031 52.007812 270.898438 51.859375 270.945312 51.648438 C 270.992188 51.433594 271.003906 51.230469 270.96875 51.195312 C 270.9375 51.164062 270.871094 51.308594 270.820312 51.523438 M 270.65625 52.46875 C 270.644531 52.679688 270.609375 53.125 270.574219 53.457031 C 270.515625 54.019531 270.519531 54.03125 270.644531 53.652344 C 270.714844 53.421875 270.75 52.976562 270.726562 52.660156 C 270.699219 52.296875 270.671875 52.222656 270.65625 52.46875 M 228.121094 52.355469 C 228.277344 52.382812 228.5 52.382812 228.621094 52.351562 C 228.738281 52.320312 228.613281 52.296875 228.339844 52.296875 C 228.066406 52.300781 227.96875 52.324219 228.121094 52.355469 M 225.460938 52.601562 C 225.578125 52.632812 225.773438 52.632812 225.890625 52.601562 C 226.011719 52.570312 225.914062 52.542969 225.671875 52.542969 C 225.4375 52.542969 225.339844 52.570312 225.460938 52.601562 M 58.996094 53.09375 C 59.117188 53.125 59.3125 53.125 59.433594 53.09375 C 59.550781 53.0625 59.453125 53.039062 59.214844 53.039062 C 58.976562 53.039062 58.878906 53.0625 58.996094 53.09375 M 61.539062 53.222656 C 61.691406 53.25 61.914062 53.25 62.03125 53.21875 C 62.148438 53.1875 62.023438 53.164062 61.753906 53.164062 C 61.480469 53.164062 61.382812 53.191406 61.539062 53.222656 M 19.179688 53.34375 C 19.332031 53.375 19.558594 53.375 19.675781 53.34375 C 19.792969 53.3125 19.667969 53.289062 19.394531 53.289062 C 19.121094 53.289062 19.023438 53.316406 19.179688 53.34375 M 27.847656 53.34375 C 28 53.375 28.226562 53.375 28.34375 53.34375 C 28.464844 53.3125 28.335938 53.289062 28.0625 53.289062 C 27.792969 53.289062 27.695312 53.316406 27.847656 53.34375 M 26.613281 53.46875 C 26.761719 53.5 26.988281 53.5 27.105469 53.46875 C 27.222656 53.4375 27.097656 53.410156 26.824219 53.414062 C 26.554688 53.414062 26.457031 53.441406 26.613281 53.46875 M 172.347656 54.777344 L 171.984375 55.175781 L 172.386719 54.8125 C 172.761719 54.472656 172.847656 54.371094 172.75 54.371094 C 172.730469 54.371094 172.546875 54.554688 172.347656 54.777344 M 168.738281 56.074219 C 168.921875 56.101562 169.203125 56.101562 169.355469 56.070312 C 169.507812 56.042969 169.351562 56.019531 169.011719 56.019531 C 168.671875 56.019531 168.546875 56.042969 168.738281 56.074219 M 181.386719 60.964844 L 181.027344 61.371094 L 181.425781 61.003906 C 181.804688 60.667969 181.886719 60.566406 181.792969 60.566406 C 181.769531 60.566406 181.589844 60.75 181.386719 60.964844 M 179.90625 62.453125 L 179.539062 62.859375 L 179.945312 62.492188 C 180.160156 62.292969 180.34375 62.109375 180.34375 62.089844 C 180.34375 61.992188 180.242188 62.078125 179.90625 62.453125 M 168.492188 66.109375 C 168.953125 66.132812 169.679688 66.132812 170.101562 66.109375 C 170.523438 66.082031 170.144531 66.0625 169.257812 66.0625 C 168.375 66.0625 168.027344 66.082031 168.492188 66.109375 " fill-opacity="1" fill-rule="evenodd"/></svg>